<?xml version="1.0" encoding="UTF-8"?>
<svg id="Layer_1" data-name="Layer 1" xmlns="http://www.w3.org/2000/svg" viewBox="0 0 120.08 180.12">
  <path d="M120.44,50.2h-20.79V17.74h20.66M120.44,37.03h-11.65v6.4h11.71M120.37,24.51h-11.58v6.03h11.65"/>
  <path d="M107.74,97.52c-4.09,0-7.34-1.07-9.75-3.22-2.41-2.15-3.61-5.13-3.61-8.94v-1.57c0-3.81,1.2-6.79,3.61-8.94,2.41-2.15,5.66-3.22,9.75-3.22s7.35,1.07,9.75,3.22c1.24,1.1,2.14,2.43,2.74,3.97l-.08-14.16c-3.5-1.46-7.64-2.19-12.42-2.19-5.42,0-10.03.96-13.85,2.89-3.81,1.93-6.71,4.56-8.7,7.89-1.99,3.33-2.98,7.13-2.98,11.38s1,7.99,3.01,11.32c2.01,3.33,4.91,5.95,8.7,7.86,3.79,1.91,8.4,2.86,13.82,2.86,4.88,0,9.1-.76,12.64-2.29l-.08-14.23c-.6,1.62-1.53,3-2.81,4.15-2.41,2.15-5.66,3.22-9.75,3.22Z"/>
  <g>
    <path d="M13.99,50.2L2.88,17.74h9.92l6.99,23.91,8.23-23.91h9.37l8.23,23.91,6.99-23.91h9.46l-11.11,32.46h-11.06l-7.5-22.03-7.5,22.03h-10.92Z"/>
    <path d="M64.77,50.2V17.74h30.17v6.77h-21.03v6.03h18.97v6.49h-18.97v6.4h21.35v6.77h-30.49Z"/>
    <path d="M19.12,105.95L4.49,63.2h13.07l9.21,31.49,10.84-31.49h12.34l10.84,31.49,9.21-31.49h12.46l-14.63,42.75h-14.57l-9.87-29.02-9.87,29.02h-14.39Z"/>
    <path d="M7.03,161.69v-47.5h28.03c6.24,0,11.08,1.03,14.52,3.08s5.15,5.24,5.15,9.57c0,2.27-.58,4.33-1.74,6.15-1.16,1.83-3.06,3.28-5.69,4.35,3.03,1.03,5.2,2.41,6.49,4.15,1.29,1.74,1.94,3.86,1.94,6.36,0,4.59-1.75,8.05-5.25,10.37-3.5,2.32-8.44,3.48-14.82,3.48H7.03ZM35.13,123.9h-14.72v9.23h14.72c4.46,0,6.69-1.45,6.69-4.35v-.6c0-2.85-2.23-4.28-6.69-4.28ZM20.41,151.79h15.25c4.59,0,6.89-1.54,6.89-4.62v-.6c0-2.85-2.3-4.28-6.89-4.28h-15.25v9.5Z"/>
    <path d="M88.44,162.49c-6.02,0-11.14-1.06-15.35-3.18-4.21-2.12-7.44-5.03-9.67-8.73-2.23-3.7-3.34-7.89-3.34-12.58s1.1-8.94,3.31-12.64c2.21-3.7,5.43-6.62,9.67-8.76,4.24-2.14,9.37-3.21,15.39-3.21s11.2,1.06,15.42,3.18c4.21,2.12,7.42,5.03,9.63,8.73,2.21,3.7,3.31,7.94,3.31,12.71s-1.1,8.88-3.31,12.58c-2.21,3.7-5.42,6.61-9.63,8.73-4.21,2.12-9.35,3.18-15.42,3.18ZM88.44,152.33c4.55,0,8.16-1.19,10.84-3.58,2.68-2.38,4.01-5.7,4.01-9.93v-1.74c0-4.24-1.34-7.55-4.01-9.93-2.68-2.38-6.29-3.58-10.84-3.58s-8.16,1.19-10.84,3.58c-2.68,2.39-4.01,5.7-4.01,9.93v1.74c0,4.24,1.34,7.55,4.01,9.93,2.68,2.39,6.29,3.58,10.84,3.58Z"/>
  </g>
</svg>