<?xml version="1.0" encoding="UTF-8"?>
<svg id="Layer_3" data-name="Layer 3" xmlns="http://www.w3.org/2000/svg" viewBox="0 0 120.08 180.12">
  <g>
    <path d="M13.86,50.1V17.65h9.14v14.22l14.81-14.22h11.15l-13.94,13.35,14.08,19.11h-10.97l-9.69-13.53-5.44,5.17v8.37h-9.14Z"/>
    <path d="M51.16,50.1V17.65h9.14v25.69h19.47v6.77h-28.62Z"/>
    <path d="M87.82,50.1v-13.71l-17.19-18.74h11.02l10.83,11.98,10.83-11.98h10.83l-17.19,18.74v13.71h-9.14Z"/>
    <path d="M18.02,105.85v-42.75h26.37c5.7,0,9.98,1.21,12.85,3.64,2.87,2.43,4.3,5.95,4.3,10.57,0,3.33-.79,6.1-2.38,8.31-1.59,2.21-3.88,3.85-6.89,4.94l9.69,15.29h-13.73l-8.31-13.73h-9.87v13.73h-12.04ZM43.31,72.01h-13.25v11.5h13.25c4.13,0,6.2-1.83,6.2-5.48v-.6c0-3.61-2.07-5.42-6.2-5.42Z"/>
    <path d="M66.97,105.85v-42.75h12.04v18.72l19.51-18.72h14.69l-18.36,17.58,18.54,25.17h-14.45l-12.76-17.82-7.17,6.8v11.02h-12.04Z"/>
    <path d="M28.79,162.4c-6.02,0-11.14-1.06-15.35-3.18-4.21-2.12-7.44-5.03-9.67-8.73-2.23-3.7-3.34-7.89-3.34-12.58s1.1-8.94,3.31-12.64c2.21-3.7,5.43-6.62,9.67-8.76,4.24-2.14,9.37-3.21,15.39-3.21s11.2,1.06,15.42,3.18c4.21,2.12,7.42,5.03,9.63,8.73,2.21,3.7,3.31,7.94,3.31,12.71s-1.1,8.88-3.31,12.58c-2.21,3.7-5.42,6.61-9.63,8.73-4.21,2.12-9.35,3.18-15.42,3.18ZM28.79,152.23c4.55,0,8.16-1.19,10.84-3.58,2.68-2.38,4.01-5.7,4.01-9.93v-1.74c0-4.24-1.34-7.55-4.01-9.93-2.68-2.38-6.29-3.58-10.84-3.58s-8.16,1.19-10.84,3.58c-2.68,2.39-4.01,5.7-4.01,9.93v1.74c0,4.24,1.34,7.55,4.01,9.93,2.68,2.39,6.29,3.58,10.84,3.58Z"/>
    <path d="M63.17,161.6v-47.5h13.38v20.8l21.67-20.8h16.32l-20.4,19.53,20.6,27.96h-16.06l-14.18-19.8-7.96,7.56v12.24h-13.38Z"/>
  </g>
  <rect x="-.24" y="43.33" width="9.65" height="6.77"/>
  <rect x="-.5" y="17.69" width="9.65" height="6.77"/>
  <rect x="-.29" y="30.42" width="7.38" height="6.48"/>
  <path d="M9.6,73.06c-1.99-3.33-4.88-5.95-8.67-7.86-.47-.24-.96-.46-1.46-.67l.23,39.72c.42-.18.83-.37,1.23-.57,3.79-1.91,6.68-4.53,8.67-7.86,1.99-3.33,2.98-7.1,2.98-11.32s-.99-8.11-2.98-11.44ZM.42,85.22c0,1.65-.23,3.15-.68,4.49l-.06-10.72c.49,1.38.74,2.94.74,4.67v1.57Z"/>
</svg>